{"glyphs":{"0":{"ha":1213,"x_min":39,"x_max":1129,"o":"m 581 936 q 1129 469 1129 936 q 583 0 1129 1 q 39 468 39 0 q 581 936 39 933 m 972 469 q 583 781 972 781 q 193 469 193 781 q 583 157 193 157 q 972 469 972 157 m 324 392 l 324 547 l 858 547 l 858 392 l 324 392 z "},"1":{"ha":265,"x_min":39,"x_max":194,"o":"m 39 1 l 39 935 l 194 935 l 194 1 l 39 1 z "},"2":{"ha":1213,"x_min":38,"x_max":1129,"o":"m 1129 156 l 1129 1 l 38 1 l 38 314 q 311 544 38 544 l 311 389 l 297 389 q 194 274 194 389 l 194 156 l 1129 156 m 869 781 l 38 781 l 38 935 l 858 935 q 1129 701 1129 935 l 1129 622 q 858 392 1129 392 l 858 544 l 869 547 q 972 664 972 547 q 869 781 972 781 z "},"3":{"ha":1213,"x_min":38,"x_max":1129,"o":"m 869 781 l 38 781 l 38 935 l 858 935 q 1129 701 1129 935 l 1129 622 q 1029 460 1114 488 q 1129 314 1115 421 l 1129 232 q 858 1 1129 1 l 39 1 l 39 156 l 869 156 q 972 274 972 156 q 869 389 972 389 l 38 389 l 38 547 l 869 547 q 972 664 972 547 q 869 781 972 781 z "},"4":{"ha":1213,"x_min":38,"x_max":1129,"o":"m 972 1 l 972 274 q 869 389 972 389 l 38 389 l 38 544 l 792 935 l 1119 935 l 358 544 l 858 544 q 1129 314 1129 544 l 1129 1 l 972 1 z "},"5":{"ha":1213,"x_min":38,"x_max":1129,"o":"m 1129 781 l 1129 935 l 38 935 l 38 622 q 311 392 38 392 l 311 547 l 297 547 q 194 664 194 547 l 194 781 l 1129 781 m 869 156 l 38 156 l 38 1 l 858 1 q 1129 236 1129 1 l 1129 314 q 858 544 1129 544 l 858 392 l 869 389 q 972 274 972 389 q 869 156 972 156 z "},"6":{"ha":1213,"x_min":38,"x_max":1129,"o":"m 904 156 q 972 221 972 156 l 972 333 q 904 393 972 392 l 193 393 l 193 274 q 297 156 193 156 l 904 156 m 1129 157 q 944 3 1129 3 l 307 3 q 38 236 38 3 l 38 701 q 311 935 38 935 l 1129 935 l 1129 781 l 297 781 q 194 664 194 781 l 194 547 l 943 547 q 1129 392 1129 547 l 1129 157 z "},"7":{"ha":1213,"x_min":38,"x_max":1126,"o":"m 38 781 l 778 781 q 972 625 972 781 l 972 1 l 1126 1 l 1126 708 q 854 938 1126 938 l 38 938 l 38 781 z "},"8":{"ha":1213,"x_min":38,"x_max":1129,"o":"m 257 781 q 194 725 194 781 l 194 544 l 972 544 l 972 674 q 972 720 972 700 q 965 754 971 740 q 945 774 958 768 q 907 781 932 781 l 257 781 m 38 779 q 222 935 40 935 l 899 935 q 1010 920 965 935 q 1081 876 1054 906 q 1118 803 1107 847 q 1129 701 1129 760 l 1129 236 q 858 1 1129 1 l 203 1 q 38 164 39 1 l 38 779 m 283 156 l 907 156 q 945 162 932 156 q 965 181 958 168 q 972 214 971 194 q 974 260 974 233 l 974 389 l 193 389 l 193 258 q 283 156 193 156 z "},"9":{"ha":1213,"x_min":38,"x_max":1129,"o":"m 264 781 q 194 715 194 781 l 194 603 q 264 543 194 544 l 974 543 l 974 664 q 869 781 974 781 l 264 781 m 38 779 q 222 935 40 935 l 861 935 q 1129 701 1129 935 l 1129 236 q 858 1 1129 1 l 39 1 l 39 156 l 869 156 q 974 274 972 156 l 974 389 l 225 389 q 38 544 40 389 l 38 779 z "}," ":{"ha":688,"x_min":0,"x_max":0,"o":""}," ":{"ha":688,"x_min":0,"x_max":0,"o":""},"!":{"ha":272,"x_min":38,"x_max":194,"o":"m 39 283 l 194 283 l 194 935 l 39 935 l 39 283 m 38 157 l 38 1 l 193 1 l 193 157 l 38 157 z "},"\"":{"ha":479,"x_min":38,"x_max":408,"o":"m 408 935 l 253 935 l 253 778 l 408 611 l 408 935 m 193 935 l 38 935 l 38 778 l 193 611 l 193 935 z "},"#":{"ha":1213,"x_min":39,"x_max":1129,"o":"m 39 935 l 39 781 l 319 781 l 319 160 l 39 160 l 39 1 l 1129 1 l 1129 158 l 842 158 l 842 782 l 1129 782 l 1129 935 l 39 935 m 690 783 l 690 163 l 474 163 l 474 782 l 690 783 z "},"$":{"ha":1213,"x_min":38,"x_max":1129,"o":"m 869 156 l 661 156 l 661 782 l 1129 782 l 1129 935 l 311 935 q 38 701 38 935 l 38 622 q 311 392 40 392 l 311 547 l 297 547 q 194 664 194 547 q 297 781 194 781 l 508 781 l 508 156 l 38 156 l 38 1 l 858 1 q 1129 236 1129 1 l 1129 314 q 858 544 1129 544 l 858 389 l 869 389 q 972 274 972 389 q 869 156 972 156 z "},"%":{"ha":1201,"x_min":39,"x_max":1129,"o":"m 1129 935 l 194 1 l 39 1 l 971 935 l 1129 935 m 311 935 q 585 701 585 935 q 313 467 585 467 q 40 700 40 467 q 311 935 40 932 m 507 701 q 313 857 507 857 q 117 701 117 857 q 313 544 117 544 q 507 701 507 544 m 854 468 q 1128 235 1128 468 q 856 0 1128 0 q 583 233 583 0 q 854 468 583 465 m 1050 235 q 856 390 1050 390 q 660 235 660 390 q 856 78 660 78 q 1050 235 1050 78 z "},"&":{"ha":1213,"x_min":38,"x_max":1129,"o":"m 297 781 l 861 781 l 861 935 l 308 935 q 38 701 38 935 l 38 622 q 138 460 51 486 q 38 314 51 419 l 38 232 q 308 1 38 1 l 1128 1 l 1128 156 l 839 156 l 839 389 l 1129 389 l 1129 547 l 297 547 q 194 664 194 547 q 297 781 194 781 m 683 389 l 683 156 l 297 156 q 194 274 194 156 q 297 389 194 389 l 683 389 z "},"'":{"ha":268,"x_min":38,"x_max":193,"o":"m 193 935 l 38 935 l 38 778 l 193 611 l 193 935 z "},"(":{"ha":658,"x_min":39,"x_max":583,"o":"m 583 867 l 583 938 q 39 468 39 936 q 583 0 39 0 l 583 157 q 193 469 193 157 q 583 781 193 781 l 583 867 z "},")":{"ha":658,"x_min":39,"x_max":583,"o":"m 40 867 l 40 938 q 583 468 583 936 q 39 0 583 0 l 40 157 q 429 469 429 157 q 39 781 429 781 l 40 867 z "},"*":{"ha":499,"x_min":40,"x_max":444,"o":"m 131 933 l 240 822 l 358 933 l 444 846 l 331 732 l 439 625 l 358 539 l 240 642 l 140 542 l 50 632 l 150 732 l 40 843 l 131 933 z "},"+":{"ha":736,"x_min":39,"x_max":663,"o":"m 278 788 l 278 544 l 39 544 l 39 389 l 278 389 l 278 172 l 431 172 l 431 389 l 663 389 l 663 544 l 431 544 l 431 788 l 278 788 z "},",":{"ha":272,"x_min":38,"x_max":193,"o":"m 193 157 l 38 157 l 38 1 l 193 -165 l 193 157 z "},"-":{"ha":643,"x_min":33,"x_max":576,"o":"m 576 507 l 576 643 l 33 643 l 33 507 l 576 507 z "},"‐":{"ha":643,"x_min":33,"x_max":576,"o":"m 576 507 l 576 643 l 33 643 l 33 507 l 576 507 z "},".":{"ha":272,"x_min":38,"x_max":193,"o":"m 193 157 l 38 157 l 38 1 l 193 1 l 193 157 z "},"/":{"ha":1201,"x_min":39,"x_max":1129,"o":"m 971 935 l 1129 935 l 194 1 l 39 1 l 971 935 z "},":":{"ha":268,"x_min":38,"x_max":193,"o":"m 193 543 l 38 543 l 38 388 l 193 388 l 193 543 m 193 157 l 38 157 l 38 1 l 193 1 l 193 157 z "},";":{"ha":268,"x_min":38,"x_max":193,"o":"m 193 543 l 38 543 l 38 388 l 193 388 l 193 543 m 193 157 l 38 157 l 38 1 l 193 -165 l 193 157 z "},"<":{"ha":768,"x_min":39,"x_max":678,"o":"m 128 578 l 678 1 l 489 1 l 39 472 l 128 578 m 678 936 l 304 528 l 211 625 l 485 936 l 678 936 z "},"=":{"ha":749,"x_min":39,"x_max":671,"o":"m 671 256 l 671 411 l 39 411 l 39 256 l 671 256 m 671 561 l 671 717 l 39 717 l 39 561 l 671 561 z "},">":{"ha":768,"x_min":39,"x_max":678,"o":"m 678 472 l 228 1 l 39 1 l 589 578 l 678 472 m 232 936 l 506 625 l 413 528 l 39 936 l 232 936 z "},"?":{"ha":1213,"x_min":38,"x_max":1129,"o":"m 869 781 q 972 664 972 781 q 874 549 972 549 l 869 549 l 38 549 l 38 290 l 193 290 l 193 392 l 858 392 q 1129 622 1129 392 l 1129 701 q 858 935 1129 935 l 38 935 l 38 781 l 869 781 m 38 157 l 38 1 l 193 1 l 193 157 l 38 157 z "},"@":{"ha":1213,"x_min":39,"x_max":1129,"o":"m 972 469 q 583 781 972 781 q 193 469 193 781 q 583 157 193 157 l 664 163 l 1129 0 l 583 0 q 39 468 39 0 q 581 936 39 936 q 1129 469 1129 936 q 1008 182 1097 258 l 867 236 q 972 469 957 304 m 403 367 l 769 367 l 614 640 q 590 663 601 663 q 569 640 582 663 l 403 367 m 903 288 l 274 288 l 500 679 q 538 733 522 718 q 590 757 558 754 q 643 733 619 756 q 682 679 654 724 l 903 288 z "},"A":{"ha":1213,"x_min":39,"x_max":1129,"o":"m 193 -1 l 547 700 q 586 744 569 744 q 624 700 601 744 l 974 -1 l 1129 -1 l 740 778 q 703 846 719 818 q 675 888 688 874 q 585 933 640 926 q 494 886 529 926 q 429 778 468 856 l 39 -1 l 193 -1 z "},"B":{"ha":1213,"x_min":38,"x_max":1129,"o":"m 193 157 l 867 157 q 972 274 972 157 q 869 392 972 392 l 193 392 l 193 157 m 38 157 l 38 547 l 869 547 q 972 664 972 547 q 869 781 972 781 l 39 781 l 39 935 l 858 935 q 1129 704 1129 935 l 1129 622 q 1029 460 1114 486 q 1129 314 1114 419 l 1129 236 q 858 1 1129 1 l 38 1 l 38 157 z "},"C":{"ha":1213,"x_min":39,"x_max":1129,"o":"m 972 781 l 583 781 q 193 469 193 781 q 583 157 193 157 l 1129 157 l 1129 4 l 585 4 q 175 118 311 4 q 39 468 39 232 q 581 936 39 936 l 1129 936 l 1129 701 l 972 701 l 972 781 z "},"D":{"ha":1213,"x_min":39,"x_max":1129,"o":"m 194 160 l 583 160 q 974 469 974 160 q 585 779 974 779 l 39 779 l 39 936 l 583 936 q 1129 469 1129 936 q 588 4 1129 4 l 39 4 l 39 544 l 194 544 l 194 160 z "},"E":{"ha":1213,"x_min":38,"x_max":1129,"o":"m 297 781 q 194 664 194 781 q 297 547 194 547 l 1129 547 l 1129 389 l 297 389 q 194 274 194 389 q 297 156 194 156 l 1128 156 l 1128 1 l 308 1 q 38 232 38 1 l 38 314 q 138 460 51 419 q 38 622 51 486 l 38 701 q 308 935 38 935 l 1129 935 l 1129 781 l 297 781 z "},"F":{"ha":1213,"x_min":39,"x_max":1129,"o":"m 1129 779 l 1129 935 l 39 935 l 39 779 l 1129 779 m 1129 389 l 1129 544 l 39 544 l 39 1 l 194 1 l 194 389 l 1129 389 z "},"G":{"ha":1213,"x_min":39,"x_max":1129,"o":"m 974 157 l 974 543 l 1129 543 l 1129 0 l 581 0 q 39 469 39 0 q 583 936 39 936 l 1129 936 l 1129 779 l 583 779 q 193 468 193 779 q 583 156 193 156 l 974 157 z "},"H":{"ha":1213,"x_min":39,"x_max":1129,"o":"m 39 935 l 39 1 l 194 1 l 194 389 l 1129 389 l 1129 544 l 193 544 l 193 935 l 39 935 z "},"I":{"ha":1213,"x_min":39,"x_max":1129,"o":"m 39 935 l 39 779 l 508 779 l 508 157 l 39 157 l 39 1 l 1129 1 l 1129 157 l 663 157 l 663 779 l 1129 779 l 1129 935 l 39 935 z "},"J":{"ha":1213,"x_min":39,"x_max":1129,"o":"m 1092 389 q 1129 544 1129 468 l 1129 935 l 628 935 l 628 779 l 974 779 l 974 585 q 971 553 974 564 q 925 374 967 549 q 915 347 925 367 l 897 311 l 858 233 q 810 174 838 193 q 740 156 783 156 l 39 156 l 39 0 l 818 0 q 908 43 874 0 q 935 83 919 56 q 974 156 951 111 l 1092 389 z "},"K":{"ha":1213,"x_min":39,"x_max":1129,"o":"m 972 1 l 972 274 q 869 389 972 389 l 321 389 l 321 692 l 792 935 l 1119 935 l 358 544 l 858 544 q 1129 314 1129 544 l 1129 1 l 972 1 m 39 935 l 194 935 l 194 1 l 39 1 l 39 935 z "},"L":{"ha":1213,"x_min":38,"x_max":1129,"o":"m 1129 157 l 1129 0 l 311 0 q 38 233 38 0 l 38 936 l 193 936 l 193 313 q 388 157 193 157 l 1129 157 z "},"M":{"ha":1213,"x_min":38,"x_max":1129,"o":"m 1011 935 l 1053 935 q 1129 840 1129 935 l 1129 1 l 974 1 l 974 622 l 739 156 l 675 46 q 585 0 640 7 q 494 47 529 7 l 429 156 l 193 622 l 193 1 l 38 1 l 38 840 q 115 935 38 935 l 156 935 q 238 846 196 931 l 547 233 q 586 189 569 189 q 621 233 597 190 l 931 846 q 1011 935 972 931 z "},"N":{"ha":1213,"x_min":38,"x_max":1129,"o":"m 886 86 l 190 696 l 190 1 l 38 1 l 38 840 q 115 935 38 935 l 156 935 q 263 883 197 931 l 974 247 l 974 935 l 1129 935 l 1129 94 q 1053 1 1129 1 l 1022 1 q 886 86 971 6 z "},"O":{"ha":1213,"x_min":39,"x_max":1129,"o":"m 581 936 q 1129 469 1129 936 q 583 0 1129 1 q 39 468 39 0 q 581 936 39 933 m 972 469 q 583 781 972 781 q 193 469 193 781 q 583 157 193 157 q 972 469 972 157 m 842 392 l 318 392 l 318 543 l 842 543 l 842 392 z "},"P":{"ha":1213,"x_min":38,"x_max":1129,"o":"m 869 781 q 972 664 972 781 q 869 547 972 547 l 38 547 l 38 1 l 193 1 l 193 392 l 858 392 q 1129 622 1129 392 l 1129 701 q 858 935 1129 935 l 38 935 l 38 781 l 869 781 z "},"Q":{"ha":1213,"x_min":39,"x_max":1129,"o":"m 194 469 q 301 236 211 301 l 161 182 q 39 469 71 257 q 588 936 39 936 q 1129 468 1129 933 q 583 0 1129 0 l 507 0 l 507 507 l 660 507 l 660 161 l 667 161 q 974 469 974 161 q 583 781 974 781 q 194 469 194 781 z "},"R":{"ha":1213,"x_min":38,"x_max":1129,"o":"m 869 781 q 972 664 972 781 q 869 547 972 547 l 38 547 l 38 392 l 792 1 l 1097 1 l 358 392 l 858 392 q 1129 622 1129 392 l 1129 701 q 858 935 1129 935 l 38 935 l 38 781 l 869 781 z "},"S":{"ha":1213,"x_min":38,"x_max":1129,"o":"m 297 781 l 1129 781 l 1129 935 l 311 935 q 38 701 38 935 l 38 392 l 193 392 l 193 664 q 297 781 193 781 m 869 156 l 38 156 l 38 1 l 858 1 q 1129 236 1129 1 l 1129 544 l 972 544 l 972 274 q 869 156 972 156 z "},"T":{"ha":1213,"x_min":39,"x_max":1129,"o":"m 39 935 l 1129 935 l 1129 779 l 663 779 l 663 1 l 508 1 l 508 779 l 39 779 l 39 935 z "},"U":{"ha":1213,"x_min":38,"x_max":1128,"o":"m 974 161 l 583 161 q 194 471 194 161 l 194 936 l 38 936 l 38 471 q 579 6 38 6 l 1128 6 l 1128 936 l 974 936 l 974 161 z "},"V":{"ha":1213,"x_min":39,"x_max":1129,"o":"m 193 935 l 39 935 l 429 156 q 465 90 449 117 q 494 47 481 63 q 585 0 532 6 q 675 46 639 6 q 703 88 688 60 q 740 156 719 115 l 1129 935 l 974 935 l 624 233 q 586 189 600 189 q 547 233 571 189 l 193 935 z "},"W":{"ha":1213,"x_min":38,"x_max":1129,"o":"m 1011 0 l 1053 0 q 1129 93 1129 0 l 1129 932 l 974 932 l 974 311 l 739 778 l 675 888 q 585 935 640 926 q 494 886 528 926 l 429 778 l 193 311 l 193 932 l 38 932 l 38 93 q 115 0 38 0 l 156 0 q 238 89 194 0 l 547 700 q 586 744 571 744 q 621 700 597 743 l 931 89 q 1011 0 974 1 z "},"X":{"ha":1213,"x_min":39,"x_max":1129,"o":"m 1124 936 l 203 1 l 39 1 l 939 936 l 1124 936 m 232 936 l 506 625 l 413 528 l 39 936 l 232 936 m 947 1 l 663 313 l 750 401 l 1129 1 l 947 1 z "},"Y":{"ha":1213,"x_min":39,"x_max":1129,"o":"m 1129 935 l 661 468 l 661 1 l 506 1 l 506 469 l 971 935 l 1129 935 m 197 935 l 506 625 l 428 547 l 39 935 l 197 935 z "},"Z":{"ha":1213,"x_min":38,"x_max":1129,"o":"m 869 781 l 38 781 l 38 935 l 856 935 q 1129 701 1129 935 l 1129 392 l 974 392 l 974 664 q 869 781 974 781 m 297 156 l 1129 156 l 1129 1 l 308 1 q 38 236 38 1 l 38 544 l 194 544 l 194 274 q 297 156 194 156 z "},"[":{"ha":456,"x_min":38,"x_max":381,"o":"m 283 156 l 381 156 l 381 3 l 203 3 q 38 164 39 3 l 38 779 q 222 935 38 935 l 381 935 l 381 781 l 257 781 q 194 725 194 781 l 194 256 q 283 156 194 156 z "},"\\":{"ha":1201,"x_min":39,"x_max":1129,"o":"m 199 935 l 39 935 l 972 1 l 1129 1 l 199 935 z "},"]":{"ha":456,"x_min":38,"x_max":381,"o":"m 135 156 l 38 156 l 38 3 l 215 3 q 381 164 379 3 l 381 779 q 196 935 381 935 l 38 935 l 38 781 l 161 781 q 224 725 224 781 l 224 256 q 135 156 224 156 z "},"^":{"ha":1213,"x_min":38,"x_max":1129,"o":"m 297 781 q 194 664 194 781 q 297 547 194 547 l 1129 547 l 1129 1 l 974 1 l 974 392 l 308 392 q 38 622 38 392 l 38 701 q 308 935 38 935 l 1129 935 l 1129 781 l 297 781 z "},"_":{"ha":838,"x_min":-3,"x_max":838,"o":"m 838 -97 l -3 -97 l -3 -50 l 838 -50 l 838 -97 z "},"`":{"ha":371,"x_min":50,"x_max":306,"o":"m 306 1028 l 244 1183 l 50 1183 q 211 1028 133 1035 l 306 1028 z "},"a":{"ha":1213,"x_min":39,"x_max":1129,"o":"m 272 157 l 896 157 l 624 701 q 586 746 600 746 q 547 701 571 746 l 272 157 m 1129 1 l 39 1 l 429 779 q 494 888 469 858 q 585 935 529 931 q 675 888 640 931 q 703 847 688 874 q 740 779 719 819 l 1129 1 z "},"b":{"ha":1213,"x_min":38,"x_max":1129,"o":"m 869 781 l 38 781 l 38 935 l 858 935 q 1129 701 1129 935 l 1129 622 q 1029 460 1114 488 q 1129 314 1115 421 l 1129 232 q 858 1 1129 1 l 39 1 l 39 156 l 869 156 q 972 274 972 156 q 869 389 972 389 l 38 389 l 38 547 l 869 547 q 972 664 972 547 q 869 781 972 781 z "},"c":{"ha":1213,"x_min":39,"x_max":1129,"o":"m 972 781 l 583 781 q 193 469 193 781 q 583 157 193 157 l 1129 157 l 1129 4 l 585 4 q 175 118 311 4 q 39 468 39 232 q 581 936 39 936 l 1129 936 l 1129 701 l 972 701 l 972 781 z "},"d":{"ha":1213,"x_min":39,"x_max":1129,"o":"m 194 782 l 583 782 q 974 472 974 782 q 585 163 974 163 l 39 163 l 39 6 l 583 6 q 1129 472 1129 6 q 588 938 1129 938 l 39 938 l 39 397 l 194 397 l 194 782 z "},"e":{"ha":1213,"x_min":39,"x_max":1129,"o":"m 1129 389 l 1129 544 l 39 544 l 39 389 l 1129 389 m 1129 779 l 1129 935 l 39 935 l 39 779 l 1129 779 m 1129 156 l 39 156 l 39 0 l 1129 0 l 1129 156 z "},"f":{"ha":1213,"x_min":39,"x_max":1129,"o":"m 1129 779 l 1129 935 l 39 935 l 39 779 l 1129 779 m 1129 389 l 1129 544 l 39 544 l 39 1 l 194 1 l 194 389 l 1129 389 z "},"g":{"ha":1210,"x_min":39,"x_max":1129,"o":"m 974 157 l 974 543 l 1129 543 l 1129 0 l 581 0 q 39 469 39 0 q 583 936 39 936 l 1129 936 l 1129 779 l 583 779 q 193 468 193 779 q 583 156 193 156 l 974 157 z "},"h":{"ha":1213,"x_min":39,"x_max":1129,"o":"m 1129 935 l 1129 1 l 972 1 l 972 389 l 39 389 l 39 544 l 974 544 l 974 935 l 1129 935 z "},"i":{"ha":265,"x_min":39,"x_max":194,"o":"m 39 1 l 39 935 l 194 935 l 194 1 l 39 1 z "},"j":{"ha":1213,"x_min":38,"x_max":1126,"o":"m 38 157 l 778 157 q 972 313 972 157 l 972 936 l 1126 936 l 1126 229 q 854 0 1126 0 l 38 0 l 38 157 z "},"k":{"ha":1213,"x_min":39,"x_max":1129,"o":"m 39 1 l 39 935 l 193 935 l 193 628 l 792 935 l 1119 935 l 358 544 l 858 544 q 1129 314 1129 544 l 1129 1 l 974 1 l 974 274 q 869 389 974 389 l 194 389 l 194 1 l 39 1 z "},"l":{"ha":1213,"x_min":38,"x_max":1129,"o":"m 1129 157 l 1129 0 l 311 0 q 38 233 38 0 l 38 936 l 193 936 l 193 313 q 388 157 193 157 l 1129 157 z "},"m":{"ha":1213,"x_min":39,"x_max":1129,"o":"m 193 781 l 583 781 q 972 469 972 781 l 972 0 l 1129 0 l 1129 468 q 588 936 1129 936 l 39 936 l 39 1 l 193 1 l 193 781 m 508 1 l 663 1 l 663 646 l 508 646 l 508 1 z "},"n":{"ha":1213,"x_min":39,"x_max":1129,"o":"m 193 781 l 193 1 l 39 1 l 39 936 l 588 936 q 1129 468 1129 936 l 1129 0 l 972 0 l 972 469 q 583 781 972 781 l 193 781 z "},"o":{"ha":1213,"x_min":39,"x_max":1129,"o":"m 581 936 q 39 468 39 935 q 583 0 39 0 q 1129 469 1129 1 q 581 936 1129 936 m 972 469 q 583 157 972 157 q 193 469 193 157 q 583 781 193 781 q 972 469 972 781 z "},"p":{"ha":1213,"x_min":38,"x_max":1129,"o":"m 869 781 q 972 664 972 781 q 869 547 972 547 l 38 547 l 38 1 l 193 1 l 193 392 l 858 392 q 1129 622 1129 392 l 1129 701 q 858 935 1129 935 l 38 935 l 38 781 l 869 781 z "},"q":{"ha":1213,"x_min":39,"x_max":1129,"o":"m 972 469 q 583 781 972 781 q 193 469 193 781 q 583 157 193 157 l 664 163 l 1129 0 l 583 0 q 39 468 39 0 q 581 936 39 936 q 1129 469 1129 936 q 1008 182 1097 258 l 867 236 q 972 469 957 304 z "},"r":{"ha":1213,"x_min":38,"x_max":1129,"o":"m 869 781 l 38 781 l 38 935 l 858 935 q 1129 701 1129 935 l 1129 622 q 858 392 1129 392 l 358 392 l 1119 1 l 792 1 l 38 392 l 38 547 l 869 547 q 972 664 972 547 q 869 781 972 781 z "},"s":{"ha":1213,"x_min":38,"x_max":1129,"o":"m 297 781 l 1129 781 l 1129 935 l 311 935 q 38 701 38 935 l 38 622 q 311 392 40 392 l 311 547 l 297 547 q 194 664 194 547 q 297 781 194 781 m 869 156 l 38 156 l 38 1 l 858 1 q 1129 236 1129 1 l 1129 314 q 858 544 1129 544 l 858 389 l 869 389 q 972 274 972 389 q 869 156 972 156 z "},"t":{"ha":1213,"x_min":39,"x_max":1129,"o":"m 39 935 l 1129 935 l 1129 779 l 663 779 l 663 1 l 508 1 l 508 779 l 39 779 l 39 935 z "},"u":{"ha":1213,"x_min":39,"x_max":1129,"o":"m 972 936 l 972 468 q 583 157 972 157 q 193 469 193 157 l 193 936 l 39 936 l 39 468 q 583 0 39 0 q 1129 469 1129 1 l 1129 936 l 972 936 z "},"v":{"ha":1213,"x_min":39,"x_max":1129,"o":"m 193 935 l 39 935 l 429 156 q 465 90 449 117 q 494 47 481 63 q 585 0 532 6 q 675 46 639 6 q 703 88 688 60 q 740 156 719 115 l 1129 935 l 974 935 l 624 233 q 586 189 600 189 q 547 233 571 189 l 193 935 z "},"w":{"ha":1213,"x_min":39,"x_max":1129,"o":"m 193 158 l 583 158 l 593 158 q 972 468 972 158 l 972 936 l 1129 936 l 1129 469 q 588 0 1129 0 l 39 0 l 39 935 l 193 935 l 193 158 m 508 935 l 663 935 l 663 290 l 508 290 l 508 935 z "},"x":{"ha":1213,"x_min":39,"x_max":1129,"o":"m 1129 935 l 194 1 l 39 1 l 971 935 l 1129 935 m 197 935 l 506 625 l 428 547 l 39 935 l 197 935 m 972 1 l 663 313 l 740 392 l 1129 1 l 972 1 z "},"y":{"ha":1213,"x_min":38,"x_max":1129,"o":"m 1129 935 l 972 935 l 972 547 l 297 547 q 194 664 194 547 l 194 936 l 38 936 l 38 622 q 311 392 38 392 l 972 392 l 972 274 q 869 156 972 156 l 38 156 l 38 1 l 858 1 q 1129 236 1129 1 l 1129 935 z "},"z":{"ha":1213,"x_min":39,"x_max":1129,"o":"m 508 1 l 1129 1 l 1129 157 l 663 157 l 663 936 l 39 936 l 39 779 l 508 779 l 508 1 z "},"{":{"ha":1213,"x_min":38,"x_max":1129,"o":"m 869 156 q 972 272 972 156 q 869 389 972 389 l 38 389 l 38 935 l 193 935 l 193 544 l 858 544 q 1129 314 1129 544 l 1129 235 q 858 1 1129 1 l 38 1 l 38 156 l 869 156 z "},"|":{"ha":265,"x_min":36,"x_max":192,"o":"m 36 -75 l 192 -75 l 192 1008 l 36 1008 l 36 -75 z "},"}":{"ha":1213,"x_min":38,"x_max":1129,"o":"m 297 156 q 194 272 194 156 q 297 389 194 389 l 1129 389 l 1129 935 l 974 935 l 974 544 l 308 544 q 38 314 38 544 l 38 235 q 308 1 38 1 l 1129 1 l 1129 156 l 297 156 z "},"~":{"ha":643,"x_min":50,"x_max":561,"o":"m 319 631 l 328 622 q 353 600 338 607 q 378 622 368 607 l 411 656 l 561 656 l 419 522 l 392 504 q 360 497 378 497 q 326 504 338 497 q 310 515 321 507 q 281 536 299 522 q 267 546 274 542 q 253 553 260 550 q 228 531 238 546 l 197 497 l 50 497 l 197 631 q 214 642 207 638 q 226 649 221 646 q 260 656 238 656 q 292 649 278 656 l 319 631 z "},"€":{"ha":1213,"x_min":39,"x_max":1129,"o":"m 39 -1 l 429 778 q 465 844 449 817 q 494 886 481 871 q 585 933 532 928 q 675 888 639 928 q 703 846 688 874 q 740 778 719 818 l 1129 -1 l 39 -1 z "},"‚":{"ha":272,"x_min":38,"x_max":193,"o":"m 193 157 l 38 157 l 38 1 l 193 -165 l 193 157 z "},"ƒ":{"ha":1213,"x_min":38,"x_max":1128,"o":"m 38 779 l 1128 779 l 1128 935 l 38 935 l 38 779 m 38 389 l 972 389 l 972 1 l 1128 1 l 1128 544 l 38 544 l 38 389 z "},"„":{"ha":524,"x_min":38,"x_max":443,"o":"m 443 157 l 443 -165 l 288 1 l 288 157 l 443 157 m 193 157 l 193 -165 l 38 1 l 38 157 l 193 157 z "},"…":{"ha":783,"x_min":38,"x_max":693,"o":"m 693 157 l 693 1 l 538 1 l 538 157 l 693 157 m 193 157 l 193 1 l 38 1 l 38 157 l 193 157 m 449 157 l 449 1 l 293 1 l 293 157 l 449 157 z "},"†":{"ha":1213,"x_min":39,"x_max":1129,"o":"m 39 1 l 1129 1 l 1129 157 l 663 157 l 663 935 l 508 935 l 508 157 l 39 157 l 39 1 z "},"‡":{"ha":1213,"x_min":33,"x_max":1129,"o":"m 1128 293 l 663 293 l 663 1 l 508 1 l 508 293 l 33 293 l 33 425 l 508 425 l 508 779 l 39 779 l 39 935 l 1129 935 l 1129 779 l 663 779 l 663 425 l 1128 425 l 1128 293 z "},"ˆ":{"ha":521,"x_min":42,"x_max":453,"o":"m 189 1019 l 219 1053 q 244 1075 229 1068 q 269 1053 260 1068 l 303 1019 l 453 1019 l 311 1153 q 294 1165 300 1160 q 283 1171 288 1169 q 251 1178 269 1178 q 218 1171 229 1178 q 206 1164 213 1168 q 189 1153 199 1160 l 42 1019 l 189 1019 z "},"‰":{"ha":1788,"x_min":39,"x_max":1706,"o":"m 1129 935 l 194 1 l 39 1 l 971 935 l 1129 935 m 311 935 q 585 701 585 935 q 313 467 585 467 q 40 700 40 467 q 311 935 40 932 m 507 701 q 313 857 507 857 q 117 701 117 857 q 313 544 117 544 q 507 701 507 544 m 854 468 q 1128 235 1128 468 q 856 0 1128 0 q 583 233 583 0 q 854 468 583 465 m 1050 235 q 856 390 1050 390 q 660 235 660 390 q 856 78 660 78 q 1050 235 1050 78 m 1432 468 q 1706 235 1706 468 q 1433 0 1706 0 q 1161 233 1161 0 q 1432 468 1161 465 m 1628 235 q 1433 390 1628 390 q 1238 235 1238 390 q 1433 78 1238 78 q 1628 235 1628 78 z "},"Š":{"ha":1213,"x_min":38,"x_max":1129,"o":"m 297 781 q 193 664 193 781 l 193 392 l 38 392 l 38 701 q 311 935 38 935 l 1129 935 l 1129 781 l 297 781 m 869 156 q 972 274 972 156 l 972 544 l 1129 544 l 1129 236 q 858 1 1129 1 l 38 1 l 38 156 l 869 156 m 528 1178 l 558 1144 q 583 1122 568 1129 q 608 1144 599 1129 l 642 1178 l 792 1178 l 650 1044 q 633 1033 639 1038 q 622 1026 626 1028 q 590 1019 608 1019 q 557 1026 568 1019 q 544 1033 551 1029 q 528 1044 538 1038 l 381 1178 l 528 1178 z "},"‹":{"ha":276,"x_min":42,"x_max":200,"o":"m 200 525 l 167 492 q 144 467 151 482 q 167 439 151 449 l 200 403 l 200 243 l 67 394 q 55 413 60 406 q 49 424 50 419 q 42 457 42 440 q 49 493 42 482 q 56 508 51 500 q 67 525 60 515 l 200 682 l 200 525 z "},"Œ":{"ha":2111,"x_min":39,"x_max":2000,"o":"m 1168 785 l 2000 785 l 2000 935 l 581 935 l 567 935 q 170 818 301 935 q 39 468 39 701 q 175 118 39 232 q 585 4 311 4 l 1999 4 l 1999 160 l 1168 160 q 1065 278 1065 160 q 1168 393 1065 393 l 2000 393 l 2000 551 l 1168 551 q 1065 668 1065 551 q 1168 785 1065 785 m 908 782 l 908 626 q 1008 464 922 490 q 908 318 922 424 l 908 236 q 918 158 908 192 l 578 158 q 193 469 193 158 q 583 781 193 781 l 908 782 z "},"Ž":{"ha":1213,"x_min":38,"x_max":1129,"o":"m 869 781 q 974 664 974 781 l 974 392 l 1129 392 l 1129 701 q 856 935 1129 935 l 38 935 l 38 781 l 869 781 m 297 156 q 194 274 194 156 l 194 544 l 38 544 l 38 236 q 308 1 38 1 l 1129 1 l 1129 156 l 297 156 m 528 1178 l 381 1178 l 528 1044 q 544 1033 538 1038 q 557 1026 551 1029 q 590 1019 568 1019 q 622 1026 608 1019 q 633 1033 626 1028 q 650 1044 639 1038 l 792 1178 l 642 1178 l 608 1144 q 583 1122 599 1129 q 558 1144 568 1129 l 528 1178 z "},"‘":{"ha":268,"x_min":38,"x_max":193,"o":"m 193 935 l 38 935 l 38 778 l 193 611 l 193 935 z "},"’":{"ha":268,"x_min":38,"x_max":193,"o":"m 38 935 l 38 611 l 193 778 l 193 935 l 38 935 z "},"“":{"ha":479,"x_min":35,"x_max":406,"o":"m 406 935 l 406 611 l 250 778 l 250 935 l 406 935 m 190 935 l 190 611 l 35 778 l 35 935 l 190 935 z "},"”":{"ha":479,"x_min":36,"x_max":407,"o":"m 36 935 l 36 611 l 192 778 l 192 935 l 36 935 m 251 935 l 251 611 l 407 778 l 407 935 l 251 935 z "},"•":{"ha":918,"x_min":49,"x_max":828,"o":"m 828 469 q 439 781 828 781 q 49 469 49 781 q 439 157 49 157 q 828 469 828 157 z "},"–":{"ha":643,"x_min":33,"x_max":576,"o":"m 576 507 l 576 643 l 33 643 l 33 507 l 576 507 z "},"—":{"ha":854,"x_min":33,"x_max":788,"o":"m 788 507 l 33 507 l 33 643 l 788 643 l 788 507 z "},"˜":{"ha":613,"x_min":56,"x_max":567,"o":"m 325 1153 l 333 1144 q 358 1122 343 1129 q 383 1144 374 1129 l 417 1178 l 567 1178 l 425 1044 l 397 1026 q 365 1019 383 1019 q 332 1026 343 1019 q 315 1037 326 1029 q 286 1058 304 1044 q 272 1068 279 1064 q 258 1075 265 1072 q 233 1053 243 1068 l 203 1019 l 56 1019 l 203 1153 q 219 1164 213 1160 q 232 1171 226 1168 q 265 1178 243 1178 q 297 1171 283 1178 l 325 1153 z "},"™":{"ha":1243,"x_min":33,"x_max":1181,"o":"m 33 933 l 578 933 l 578 856 l 344 856 l 344 467 l 268 467 l 268 856 l 33 856 l 33 933 m 1156 921 q 1178 915 1175 921 q 1181 886 1181 910 l 1181 467 l 1103 467 l 1103 778 l 986 544 l 954 489 q 934 474 944 479 q 908 467 924 468 q 864 490 881 469 l 831 544 l 713 778 l 713 467 l 635 467 l 635 886 q 674 933 635 933 l 694 933 q 735 889 715 931 l 890 583 q 910 561 900 561 q 926 583 917 561 l 1082 889 q 1100 922 1092 908 q 1118 935 1108 935 l 1156 921 z "},"š":{"ha":1213,"x_min":38,"x_max":1129,"o":"m 297 781 q 194 664 194 781 q 297 547 194 547 l 311 547 l 311 392 q 38 622 39 392 l 38 701 q 311 935 38 935 l 1129 935 l 1129 781 l 297 781 m 869 156 q 972 274 972 156 q 869 389 972 389 l 858 389 l 858 544 q 1129 314 1129 544 l 1129 236 q 858 1 1129 1 l 38 1 l 38 156 l 869 156 m 528 1178 l 558 1144 q 583 1122 568 1129 q 608 1144 599 1129 l 642 1178 l 792 1178 l 650 1044 q 633 1033 639 1038 q 622 1026 626 1028 q 590 1019 608 1019 q 557 1026 568 1019 q 544 1033 551 1029 q 528 1044 538 1038 l 381 1178 l 528 1178 z "},"›":{"ha":276,"x_min":42,"x_max":200,"o":"m 42 525 l 75 492 q 97 467 90 482 q 75 439 90 449 l 42 403 l 42 243 l 175 394 q 187 413 182 406 q 193 424 192 419 q 200 457 200 440 q 193 493 200 482 q 186 508 190 500 q 175 525 182 515 l 42 682 l 42 525 z "},"œ":{"ha":2014,"x_min":39,"x_max":1935,"o":"m 1935 779 l 1935 935 l 581 935 q 39 468 39 935 q 175 118 39 232 q 585 4 311 4 l 844 4 l 844 0 l 1935 0 l 1935 156 l 583 156 q 193 469 193 156 q 583 781 193 781 l 972 781 l 972 701 l 1129 701 l 1129 779 l 1935 779 m 1935 389 l 1935 544 l 844 544 l 844 389 l 1935 389 z "},"ž":{"ha":1213,"x_min":39,"x_max":1129,"o":"m 508 1 l 508 779 l 39 779 l 39 936 l 663 936 l 663 157 l 1129 157 l 1129 1 l 508 1 m 528 1019 l 381 1019 l 528 1153 q 544 1164 538 1160 q 557 1171 551 1168 q 590 1178 568 1178 q 622 1171 608 1178 q 633 1165 626 1169 q 650 1153 639 1160 l 792 1019 l 642 1019 l 608 1053 q 583 1075 599 1068 q 558 1053 568 1068 l 528 1019 z "},"Ÿ":{"ha":1213,"x_min":39,"x_max":1129,"o":"m 1129 935 l 971 935 l 506 469 l 506 1 l 661 1 l 661 468 l 1129 935 m 197 935 l 39 935 l 428 547 l 506 625 l 197 935 m 836 1174 l 681 1174 l 681 1018 l 836 1018 l 836 1174 m 488 1174 l 332 1174 l 332 1018 l 488 1018 l 488 1174 z "},"¡":{"ha":272,"x_min":36,"x_max":193,"o":"m 192 653 l 192 1 l 36 1 l 36 653 l 192 653 m 38 935 l 193 935 l 193 779 l 38 779 l 38 935 z "},"¢":{"ha":1213,"x_min":39,"x_max":1129,"o":"m 972 781 l 972 701 l 1129 701 l 1129 936 l 581 936 q 39 468 39 936 q 583 0 39 0 l 1129 0 l 1129 157 l 707 157 l 707 781 l 972 781 m 553 779 l 553 161 l 556 157 q 193 469 193 167 q 553 779 193 769 z "},"£":{"ha":1326,"x_min":39,"x_max":1235,"o":"m 815 561 l 815 717 l 415 717 q 689 781 514 781 l 1078 781 l 1078 701 l 1235 701 l 1235 936 l 686 936 q 197 717 314 936 l 39 717 l 39 561 l 150 561 q 146 515 147 539 q 144 468 144 492 q 144 439 144 453 q 146 411 144 425 l 39 411 l 39 256 l 181 256 q 689 0 286 0 l 1235 0 l 1235 157 l 689 157 q 374 256 468 157 l 810 256 l 810 411 l 303 411 q 299 469 299 438 q 308 561 299 522 l 815 561 z "},"¤":{"ha":1213,"x_min":39,"x_max":1129,"o":"m 39 935 l 304 671 q 224 584 253 633 q 194 478 194 535 q 226 367 194 418 q 314 276 258 315 l 39 1 l 194 1 l 419 225 q 501 206 458 213 q 589 199 543 199 q 751 224 676 199 l 972 1 l 1129 1 l 858 274 q 951 364 917 311 q 985 478 985 417 q 953 586 985 536 q 868 675 922 636 l 1129 935 l 971 935 l 764 728 q 680 749 724 742 q 589 757 636 757 q 493 749 539 757 q 406 725 447 740 l 197 935 l 39 935 m 372 474 q 389 524 372 500 q 435 565 406 547 q 503 592 464 582 q 589 603 543 603 q 674 592 635 603 q 743 565 714 582 q 790 524 772 547 q 807 474 807 500 q 790 424 807 447 q 743 383 772 400 q 674 356 714 365 q 589 346 635 346 q 503 356 543 346 q 435 383 464 365 q 389 424 406 400 q 372 474 372 447 z "},"¥":{"ha":1213,"x_min":39,"x_max":1129,"o":"m 661 67 l 661 1 l 506 1 l 506 67 l 194 67 l 194 222 l 506 222 l 506 294 l 194 294 l 194 450 l 506 450 l 506 469 l 971 935 l 1129 935 l 661 468 l 661 450 l 971 450 l 971 294 l 661 294 l 661 222 l 971 222 l 971 67 l 661 67 m 197 935 l 39 935 l 428 547 l 506 625 l 197 935 z "},"¦":{"ha":265,"x_min":36,"x_max":196,"o":"m 39 1 l 194 1 l 196 397 l 39 397 l 39 1 m 36 549 l 196 549 l 196 935 l 39 935 l 36 549 z "},"§":{"ha":1213,"x_min":38,"x_max":1129,"o":"m 297 781 q 194 664 194 781 q 297 547 194 547 l 311 547 l 311 392 q 38 622 39 392 l 38 701 q 311 935 38 935 l 1129 935 l 1129 781 l 297 781 m 869 156 q 972 274 972 156 q 869 389 972 389 l 858 389 l 858 544 q 1129 314 1129 544 l 1129 236 q 858 1 1129 1 l 38 1 l 38 156 l 869 156 m 354 465 q 372 541 354 506 q 421 602 390 576 q 493 643 451 628 q 582 658 535 658 q 671 643 629 658 q 744 602 713 628 q 793 541 775 576 q 811 465 811 506 q 793 390 811 425 q 744 328 775 354 q 671 288 713 303 q 582 272 629 272 q 493 288 535 272 q 421 328 451 303 q 372 390 390 354 q 354 465 354 425 m 468 469 q 501 406 468 432 q 582 381 533 381 q 664 406 631 381 q 697 469 697 432 q 664 533 697 507 q 582 560 631 560 q 501 533 533 560 q 468 469 468 507 z "},"¨":{"ha":619,"x_min":44,"x_max":549,"o":"m 549 1018 l 393 1018 l 393 1174 l 549 1174 l 549 1018 m 200 1018 l 44 1018 l 44 1174 l 200 1174 l 200 1018 z "},"©":{"ha":1213,"x_min":39,"x_max":1129,"o":"m 581 936 q 1129 469 1129 936 q 583 0 1129 1 q 39 468 39 0 q 581 936 39 933 m 972 469 q 583 781 972 781 q 193 469 193 781 q 583 157 193 157 q 972 469 972 157 m 733 629 l 539 629 q 343 474 343 629 q 539 317 343 317 l 811 317 l 811 240 l 539 240 q 267 472 267 240 q 538 707 267 707 l 811 707 l 811 589 l 733 589 l 733 629 z "},"ª":{"ha":654,"x_min":39,"x_max":583,"o":"m 156 547 l 467 547 l 331 819 q 313 842 321 842 q 293 819 303 842 l 156 547 m 583 469 l 39 469 l 233 858 q 267 913 254 900 q 311 936 282 933 q 357 913 339 933 q 389 858 367 903 l 583 469 z "},"«":{"ha":515,"x_min":42,"x_max":428,"o":"m 200 525 l 167 492 q 144 467 151 482 q 167 439 151 449 l 200 403 l 200 243 l 67 394 q 55 413 60 406 q 49 424 50 419 q 42 457 42 440 q 49 493 42 482 q 56 508 51 500 q 67 525 60 515 l 200 682 l 200 525 m 428 525 l 394 492 q 372 467 379 482 q 394 439 379 449 l 428 403 l 428 243 l 294 394 q 283 413 288 406 q 276 424 278 419 q 269 457 269 440 q 276 493 269 482 q 283 508 279 500 q 294 525 288 515 l 428 682 l 428 525 z "},"¬":{"ha":643,"x_min":33,"x_max":576,"o":"m 576 318 l 419 318 l 419 507 l 33 507 l 33 643 l 576 643 l 576 318 z "},"­":{"ha":471,"x_min":33,"x_max":403,"o":"m 403 507 l 33 507 l 33 643 l 403 643 l 403 507 z "},"®":{"ha":1213,"x_min":38,"x_max":1129,"o":"m 297 781 q 194 664 194 781 q 297 547 194 547 l 1129 547 l 1129 392 l 375 1 l 47 1 l 808 392 l 308 392 q 38 622 38 392 l 38 701 q 308 935 38 935 l 1129 935 l 1129 781 l 297 781 z "},"¯":{"ha":838,"x_min":0,"x_max":840,"o":"m 840 1051 l 0 1051 l 0 1099 l 840 1099 l 840 1051 z "},"°":{"ha":649,"x_min":40,"x_max":585,"o":"m 311 935 q 585 701 585 935 q 313 467 585 467 q 40 700 40 467 q 311 935 40 932 m 507 701 q 313 857 507 857 q 117 701 117 857 q 313 544 117 544 q 507 701 507 544 z "},"±":{"ha":736,"x_min":39,"x_max":663,"o":"m 278 843 l 431 843 l 431 600 l 663 600 l 663 444 l 431 444 l 431 228 l 278 228 l 278 444 l 39 444 l 39 600 l 278 600 l 278 843 m 661 8 l 39 8 l 39 143 l 661 143 l 661 8 z "},"²":{"ha":658,"x_min":47,"x_max":593,"o":"m 593 547 l 126 547 l 126 606 q 178 664 126 664 l 185 664 l 185 742 q 47 626 47 742 l 47 469 l 593 469 l 593 547 m 464 860 q 515 801 515 860 q 464 743 515 743 l 458 742 l 458 665 q 593 781 593 665 l 593 819 q 458 936 593 936 l 47 936 l 47 860 l 464 860 z "},"³":{"ha":646,"x_min":38,"x_max":583,"o":"m 454 860 q 506 801 506 860 q 454 743 506 743 l 38 743 l 38 664 l 454 664 q 506 606 506 664 q 454 547 506 547 l 39 547 l 39 469 l 449 469 q 583 585 583 469 l 583 626 q 533 699 576 681 q 583 781 578 714 l 583 819 q 449 936 583 936 l 38 936 l 38 860 l 454 860 z "},"´":{"ha":371,"x_min":50,"x_max":306,"o":"m 50 1028 l 111 1183 l 306 1183 q 144 1028 222 1035 l 50 1028 z "},"µ":{"ha":1213,"x_min":38,"x_max":1129,"o":"m 38 935 l 38 236 q 308 1 38 1 l 1129 1 l 1129 156 l 297 156 q 194 274 194 156 l 194 392 l 856 392 q 1129 622 1129 392 l 1129 936 l 972 936 l 972 664 q 869 547 972 547 l 194 547 l 194 935 l 38 935 z "},"¶":{"ha":1213,"x_min":38,"x_max":1129,"o":"m 983 6 l 828 6 l 828 783 l 297 783 q 194 664 194 783 q 297 547 194 547 l 456 547 l 456 6 l 306 6 l 306 392 q 38 622 38 392 l 38 701 q 308 935 38 935 l 1129 935 l 1129 781 l 983 781 l 983 6 z "},"·":{"ha":268,"x_min":38,"x_max":193,"o":"m 193 543 l 193 388 l 38 388 l 38 543 l 193 543 z "},"¸":{"ha":133,"x_min":-96,"x_max":60,"o":"m 60 -232 l 60 40 l -96 -100 l -96 -232 l 60 -232 z "},"¹":{"ha":185,"x_min":43,"x_max":121,"o":"m 43 469 l 121 469 l 121 936 l 43 936 l 43 469 z "},"º":{"ha":649,"x_min":40,"x_max":585,"o":"m 311 935 q 585 701 585 935 q 313 467 585 467 q 40 700 40 467 q 311 935 40 932 m 507 701 q 313 857 507 857 q 117 701 117 857 q 313 544 117 544 q 507 701 507 544 m 450 663 l 450 740 l 182 740 l 182 663 l 450 663 z "},"»":{"ha":515,"x_min":42,"x_max":428,"o":"m 269 525 l 303 492 q 325 467 318 482 q 303 439 318 449 l 269 403 l 269 243 l 403 394 q 415 413 410 406 q 421 424 419 419 q 428 457 428 440 q 421 493 428 482 q 414 508 418 500 q 403 525 410 515 l 269 682 l 269 525 m 42 525 l 75 492 q 97 467 90 482 q 75 439 90 449 l 42 403 l 42 243 l 175 394 q 187 413 182 406 q 193 424 192 419 q 200 457 200 440 q 193 493 200 482 q 186 508 190 500 q 175 525 182 515 l 42 682 l 42 525 z "},"¼":{"ha":1274,"x_min":39,"x_max":1168,"o":"m 971 935 l 39 1 l 194 1 l 1129 935 l 971 935 m 264 468 l 342 468 l 342 935 l 264 935 l 264 468 m 1168 0 l 1168 157 q 1033 272 1168 272 l 783 272 l 1164 467 l 1000 467 l 622 272 l 622 194 l 1039 194 q 1090 136 1090 194 l 1090 0 l 1168 0 z "},"½":{"ha":1354,"x_min":39,"x_max":1265,"o":"m 971 935 l 39 1 l 194 1 l 1129 935 l 971 935 m 264 468 l 342 468 l 342 935 l 264 935 l 264 468 m 1265 78 l 799 78 l 799 136 q 850 194 799 194 l 857 194 l 857 272 q 719 157 719 272 l 719 0 l 1265 0 l 1265 78 m 1136 390 q 1188 332 1188 390 q 1136 274 1188 274 l 1131 272 l 1131 196 q 1265 311 1265 196 l 1265 350 q 1131 467 1265 467 l 719 467 l 719 390 l 1136 390 z "},"¾":{"ha":1388,"x_min":50,"x_max":1282,"o":"m 1085 935 l 153 1 l 308 1 l 1243 935 l 1085 935 m 1282 0 l 1282 157 q 1147 272 1282 272 l 897 272 l 1278 467 l 1114 467 l 736 272 l 736 194 l 1153 194 q 1204 136 1204 194 l 1204 0 l 1282 0 m 467 868 q 518 810 518 868 q 467 751 518 751 l 50 751 l 50 672 l 467 672 q 518 614 518 672 q 467 556 518 556 l 51 556 l 51 478 l 461 478 q 596 593 596 478 l 596 635 q 546 707 589 689 q 596 789 590 722 l 596 828 q 461 944 596 944 l 50 944 l 50 868 l 467 868 z "},"¿":{"ha":1213,"x_min":38,"x_max":1129,"o":"m 297 156 l 1129 156 l 1129 1 l 308 1 q 38 235 38 1 l 38 314 q 308 544 38 544 l 974 544 l 974 646 l 1129 646 l 1129 388 l 293 388 q 194 272 194 388 q 297 156 194 156 m 974 935 l 1129 935 l 1129 779 l 974 779 l 974 935 z "},"À":{"ha":1213,"x_min":39,"x_max":1129,"o":"m 193 -1 l 39 -1 l 429 778 q 465 844 449 817 q 494 886 481 871 q 585 933 532 928 q 675 888 639 928 q 703 846 688 874 q 740 778 719 818 l 1129 -1 l 974 -1 l 624 700 q 586 744 600 744 q 547 700 571 744 l 193 -1 m 706 1022 l 611 1022 q 450 1178 533 1029 l 644 1178 l 706 1022 z "},"Á":{"ha":1213,"x_min":39,"x_max":1129,"o":"m 193 -1 l 39 -1 l 429 778 q 465 844 449 817 q 494 886 481 871 q 585 933 532 928 q 675 888 639 928 q 703 846 688 874 q 740 778 719 818 l 1129 -1 l 974 -1 l 624 700 q 586 744 600 744 q 547 700 571 744 l 193 -1 m 467 1022 l 528 1178 l 722 1178 q 561 1022 639 1029 l 467 1022 z "},"Â":{"ha":1213,"x_min":39,"x_max":1129,"o":"m 193 -1 l 39 -1 l 429 778 q 465 844 449 817 q 494 886 481 871 q 585 933 532 928 q 675 888 639 928 q 703 846 688 874 q 740 778 719 818 l 1129 -1 l 974 -1 l 624 700 q 586 744 600 744 q 547 700 571 744 l 193 -1 m 528 1019 l 381 1019 l 528 1153 q 544 1164 538 1160 q 557 1171 551 1168 q 590 1178 568 1178 q 622 1171 608 1178 q 633 1165 626 1169 q 650 1153 639 1160 l 792 1019 l 642 1019 l 608 1053 q 583 1075 599 1068 q 558 1053 568 1068 l 528 1019 z "},"Ã":{"ha":1213,"x_min":39,"x_max":1129,"o":"m 193 -1 l 39 -1 l 429 778 q 465 844 449 817 q 494 886 481 871 q 585 933 532 928 q 675 888 639 928 q 703 846 688 874 q 740 778 719 818 l 1129 -1 l 974 -1 l 624 700 q 586 744 600 744 q 547 700 571 744 l 193 -1 m 597 1153 l 606 1144 q 631 1122 615 1129 q 656 1144 646 1129 l 689 1178 l 839 1178 l 697 1044 l 669 1026 q 638 1019 656 1019 q 604 1026 615 1019 q 588 1037 599 1029 q 558 1058 576 1044 q 544 1068 551 1064 q 531 1075 538 1072 q 506 1053 515 1068 l 475 1019 l 328 1019 l 475 1153 q 492 1164 485 1160 q 504 1171 499 1168 q 538 1178 515 1178 q 569 1171 556 1178 l 597 1153 z "},"Ä":{"ha":1213,"x_min":39,"x_max":1129,"o":"m 193 -1 l 39 -1 l 429 778 q 465 844 449 817 q 494 886 481 871 q 585 933 532 928 q 675 888 639 928 q 703 846 688 874 q 740 778 719 818 l 1129 -1 l 974 -1 l 624 700 q 586 744 600 744 q 547 700 571 744 l 193 -1 m 836 1018 l 681 1018 l 681 1174 l 836 1174 l 836 1018 m 488 1018 l 332 1018 l 332 1174 l 488 1174 l 488 1018 z "},"Å":{"ha":1213,"x_min":39,"x_max":1129,"o":"m 193 -1 l 39 -1 l 429 778 q 465 844 449 817 q 494 886 481 871 q 585 933 532 928 q 675 888 639 928 q 703 846 688 874 q 740 778 719 818 l 1129 -1 l 974 -1 l 624 700 q 586 744 600 744 q 547 700 571 744 l 193 -1 m 664 1018 l 508 1018 l 508 1174 l 664 1174 l 664 1018 m 608 1071 l 608 1118 l 564 1118 l 564 1071 l 608 1071 z "},"Æ":{"ha":2074,"x_min":39,"x_max":1989,"o":"m 1157 779 l 1989 779 l 1989 933 l 1168 933 q 897 700 897 933 l 897 621 q 997 458 911 485 q 928 400 953 438 l 740 778 q 703 846 719 818 q 675 888 688 874 q 585 933 639 928 q 494 886 532 928 q 465 844 481 871 q 429 778 449 817 l 39 -1 l 193 -1 l 547 700 q 586 744 571 744 q 624 700 600 744 l 974 -1 l 1988 -1 l 1988 154 l 1157 154 q 1054 272 1054 154 q 1157 388 1054 388 l 1989 388 l 1989 546 l 1157 546 q 1054 663 1054 546 q 1157 779 1054 779 z "},"Ç":{"ha":1213,"x_min":39,"x_max":1129,"o":"m 649 -232 l 649 0 l 1129 0 l 1129 157 l 583 157 q 193 469 193 157 q 583 781 193 781 l 972 781 l 972 701 l 1129 701 l 1129 936 l 581 936 q 39 468 39 936 q 583 0 39 0 l 604 0 l 493 -100 l 493 -232 l 649 -232 z "},"È":{"ha":1213,"x_min":38,"x_max":1129,"o":"m 297 781 q 194 664 194 781 q 297 547 194 547 l 1129 547 l 1129 389 l 297 389 q 194 274 194 389 q 297 156 194 156 l 1128 156 l 1128 1 l 308 1 q 38 232 38 1 l 38 314 q 138 460 51 419 q 38 622 51 486 l 38 701 q 308 935 38 935 l 1129 935 l 1129 781 l 297 781 m 706 1022 l 611 1022 q 450 1178 533 1029 l 644 1178 l 706 1022 z "},"É":{"ha":1213,"x_min":38,"x_max":1129,"o":"m 297 781 q 194 664 194 781 q 297 547 194 547 l 1129 547 l 1129 389 l 297 389 q 194 274 194 389 q 297 156 194 156 l 1128 156 l 1128 1 l 308 1 q 38 232 38 1 l 38 314 q 138 460 51 419 q 38 622 51 486 l 38 701 q 308 935 38 935 l 1129 935 l 1129 781 l 297 781 m 467 1022 l 528 1178 l 722 1178 q 561 1022 639 1029 l 467 1022 z "},"Ê":{"ha":1213,"x_min":38,"x_max":1129,"o":"m 297 781 q 194 664 194 781 q 297 547 194 547 l 1129 547 l 1129 389 l 297 389 q 194 274 194 389 q 297 156 194 156 l 1128 156 l 1128 1 l 308 1 q 38 232 38 1 l 38 314 q 138 460 51 419 q 38 622 51 486 l 38 701 q 308 935 38 935 l 1129 935 l 1129 781 l 297 781 m 528 1019 l 381 1019 l 528 1153 q 544 1164 538 1160 q 557 1171 551 1168 q 590 1178 568 1178 q 622 1171 608 1178 q 633 1165 626 1169 q 650 1153 639 1160 l 792 1019 l 642 1019 l 608 1053 q 583 1075 599 1068 q 558 1053 568 1068 l 528 1019 z "},"Ë":{"ha":1213,"x_min":38,"x_max":1129,"o":"m 297 781 q 194 664 194 781 q 297 547 194 547 l 1129 547 l 1129 389 l 297 389 q 194 274 194 389 q 297 156 194 156 l 1128 156 l 1128 1 l 308 1 q 38 232 38 1 l 38 314 q 138 460 51 419 q 38 622 51 486 l 38 701 q 308 935 38 935 l 1129 935 l 1129 781 l 297 781 m 488 1018 l 332 1018 l 332 1174 l 488 1174 l 488 1018 m 836 1018 l 681 1018 l 681 1174 l 836 1174 l 836 1018 z "},"Ì":{"ha":1213,"x_min":39,"x_max":1129,"o":"m 39 935 l 1129 935 l 1129 779 l 663 779 l 663 157 l 1129 157 l 1129 1 l 39 1 l 39 157 l 508 157 l 508 779 l 39 779 l 39 935 m 706 1022 l 611 1022 q 450 1178 533 1029 l 644 1178 l 706 1022 z "},"Í":{"ha":1213,"x_min":39,"x_max":1129,"o":"m 39 935 l 1129 935 l 1129 779 l 663 779 l 663 157 l 1129 157 l 1129 1 l 39 1 l 39 157 l 508 157 l 508 779 l 39 779 l 39 935 m 467 1022 l 528 1178 l 722 1178 q 561 1022 639 1029 l 467 1022 z "},"Î":{"ha":1213,"x_min":39,"x_max":1129,"o":"m 39 935 l 1129 935 l 1129 779 l 663 779 l 663 157 l 1129 157 l 1129 1 l 39 1 l 39 157 l 508 157 l 508 779 l 39 779 l 39 935 m 528 1019 l 381 1019 l 528 1153 q 544 1164 538 1160 q 557 1171 551 1168 q 590 1178 568 1178 q 622 1171 608 1178 q 633 1165 626 1169 q 650 1153 639 1160 l 792 1019 l 642 1019 l 608 1053 q 583 1075 599 1068 q 558 1053 568 1068 l 528 1019 z "},"Ï":{"ha":1213,"x_min":39,"x_max":1129,"o":"m 39 935 l 1129 935 l 1129 779 l 663 779 l 663 157 l 1129 157 l 1129 1 l 39 1 l 39 157 l 508 157 l 508 779 l 39 779 l 39 935 m 488 1018 l 332 1018 l 332 1174 l 488 1174 l 488 1018 m 836 1018 l 681 1018 l 681 1174 l 836 1174 l 836 1018 z "},"Ð":{"ha":1390,"x_min":39,"x_max":1307,"o":"m 582 396 l 582 532 l 372 532 l 372 782 l 761 782 q 1151 472 1151 782 q 763 163 1151 163 l 217 163 l 217 6 l 761 6 q 1307 472 1307 6 q 765 938 1307 938 l 217 938 l 217 532 l 39 532 l 39 396 l 582 396 z "},"Ñ":{"ha":1213,"x_min":38,"x_max":1129,"o":"m 886 86 q 1022 1 971 6 l 1053 1 q 1129 94 1129 1 l 1129 935 l 974 935 l 974 247 l 263 883 q 156 935 199 931 l 115 935 q 38 840 38 935 l 38 1 l 190 1 l 190 696 l 886 86 m 622 1153 l 594 1171 q 563 1178 581 1178 q 529 1171 540 1178 q 517 1164 524 1168 q 500 1153 510 1160 l 353 1019 l 500 1019 l 531 1053 q 556 1075 540 1068 q 569 1068 563 1072 q 583 1058 576 1064 q 613 1037 601 1044 q 629 1026 624 1029 q 663 1019 640 1019 q 694 1026 681 1019 l 722 1044 l 864 1178 l 714 1178 l 681 1144 q 656 1122 671 1129 q 631 1144 640 1129 l 622 1153 z "},"Ò":{"ha":1213,"x_min":39,"x_max":1129,"o":"m 581 936 q 1129 469 1129 936 q 583 0 1129 1 q 39 468 39 0 q 581 936 39 933 m 972 469 q 583 781 972 781 q 193 469 193 781 q 583 157 193 157 q 972 469 972 157 m 842 392 l 307 392 l 307 547 l 842 547 l 842 392 m 706 1022 l 611 1022 q 450 1178 533 1029 l 644 1178 l 706 1022 z "},"Ó":{"ha":1213,"x_min":39,"x_max":1129,"o":"m 581 936 q 1129 469 1129 936 q 583 0 1129 1 q 39 468 39 0 q 581 936 39 933 m 972 469 q 583 781 972 781 q 193 469 193 781 q 583 157 193 157 q 972 469 972 157 m 842 392 l 307 392 l 307 547 l 842 547 l 842 392 m 467 1022 l 528 1178 l 722 1178 q 561 1022 639 1029 l 467 1022 z "},"Ô":{"ha":1213,"x_min":39,"x_max":1129,"o":"m 581 936 q 1129 469 1129 936 q 583 0 1129 1 q 39 468 39 0 q 581 936 39 933 m 972 469 q 583 781 972 781 q 193 469 193 781 q 583 157 193 157 q 972 469 972 157 m 842 392 l 307 392 l 307 547 l 842 547 l 842 392 m 528 1019 l 381 1019 l 528 1153 q 544 1164 538 1160 q 557 1171 551 1168 q 590 1178 568 1178 q 622 1171 608 1178 q 633 1165 626 1169 q 650 1153 639 1160 l 792 1019 l 642 1019 l 608 1053 q 583 1075 599 1068 q 558 1053 568 1068 l 528 1019 z "},"Õ":{"ha":1213,"x_min":39,"x_max":1129,"o":"m 581 936 q 1129 469 1129 936 q 583 0 1129 1 q 39 468 39 0 q 581 936 39 933 m 972 469 q 583 781 972 781 q 193 469 193 781 q 583 157 193 157 q 972 469 972 157 m 842 392 l 307 392 l 307 547 l 842 547 l 842 392 m 488 1018 l 332 1018 l 332 1174 l 488 1174 l 488 1018 m 836 1018 l 681 1018 l 681 1174 l 836 1174 l 836 1018 z "},"Ö":{"ha":1213,"x_min":39,"x_max":1129,"o":"m 581 936 q 1129 469 1129 936 q 583 0 1129 1 q 39 468 39 0 q 581 936 39 933 m 972 469 q 583 781 972 781 q 193 469 193 781 q 583 157 193 157 q 972 469 972 157 m 842 392 l 307 392 l 307 547 l 842 547 l 842 392 m 597 1153 l 606 1144 q 631 1122 615 1129 q 656 1144 646 1129 l 689 1178 l 839 1178 l 697 1044 l 669 1026 q 638 1019 656 1019 q 604 1026 615 1019 q 588 1037 599 1029 q 558 1058 576 1044 q 544 1068 551 1064 q 531 1075 538 1072 q 506 1053 515 1068 l 475 1019 l 328 1019 l 475 1153 q 492 1164 485 1160 q 504 1171 499 1168 q 538 1178 515 1178 q 569 1171 556 1178 l 597 1153 z "},"×":{"ha":1213,"x_min":38,"x_max":1128,"o":"m 38 935 l 972 1 l 1128 1 l 196 935 l 38 935 m 969 935 l 661 625 l 739 547 l 1128 935 l 969 935 m 194 1 l 504 313 l 426 392 l 38 1 l 194 1 z "},"Ø":{"ha":1213,"x_min":39,"x_max":1129,"o":"m 581 936 q 39 468 39 933 q 583 0 39 0 q 1129 469 1129 1 q 581 936 1129 936 m 978 469 q 589 157 978 157 q 367 193 456 157 l 913 672 q 978 469 978 596 m 765 758 l 246 289 q 199 469 199 358 q 589 781 199 781 q 765 758 693 781 z "},"Ù":{"ha":1213,"x_min":38,"x_max":1128,"o":"m 974 161 l 583 161 q 194 471 194 161 l 194 936 l 38 936 l 38 471 q 579 6 38 6 l 1128 6 l 1128 936 l 974 936 l 974 161 m 706 1022 l 644 1178 l 450 1178 q 611 1022 533 1029 l 706 1022 z "},"Ú":{"ha":1213,"x_min":38,"x_max":1128,"o":"m 974 161 l 583 161 q 194 471 194 161 l 194 936 l 38 936 l 38 471 q 579 6 38 6 l 1128 6 l 1128 936 l 974 936 l 974 161 m 467 1022 l 561 1022 q 722 1178 639 1029 l 528 1178 l 467 1022 z "},"Û":{"ha":1213,"x_min":38,"x_max":1128,"o":"m 974 161 l 583 161 q 194 471 194 161 l 194 936 l 38 936 l 38 471 q 579 6 38 6 l 1128 6 l 1128 936 l 974 936 l 974 161 m 528 1019 l 558 1053 q 583 1075 568 1068 q 608 1053 599 1068 l 642 1019 l 792 1019 l 650 1153 q 633 1165 639 1160 q 622 1171 626 1169 q 590 1178 608 1178 q 557 1171 568 1178 q 544 1164 551 1168 q 528 1153 538 1160 l 381 1019 l 528 1019 z "},"Ü":{"ha":1213,"x_min":38,"x_max":1128,"o":"m 974 161 l 583 161 q 194 471 194 161 l 194 936 l 38 936 l 38 471 q 579 6 38 6 l 1128 6 l 1128 936 l 974 936 l 974 161 m 488 1018 l 488 1174 l 332 1174 l 332 1018 l 488 1018 m 836 1018 l 836 1174 l 681 1174 l 681 1018 l 836 1018 z "},"Ý":{"ha":1213,"x_min":39,"x_max":1129,"o":"m 1129 935 l 971 935 l 506 469 l 506 1 l 661 1 l 661 468 l 1129 935 m 197 935 l 39 935 l 428 547 l 506 625 l 197 935 m 561 1022 q 722 1178 638 1028 l 528 1178 l 467 1022 l 561 1022 z "},"Þ":{"ha":1213,"x_min":33,"x_max":1129,"o":"m 189 0 l 38 0 l 38 350 l 869 350 q 972 469 972 350 q 869 586 972 586 l 33 586 l 33 938 l 193 938 l 193 739 l 868 739 q 1129 511 1129 739 l 1129 432 q 858 199 1129 199 l 189 199 l 189 0 z "},"ß":{"ha":1213,"x_min":33,"x_max":1129,"o":"m 189 -128 l 33 -128 l 33 683 q 97 873 33 810 q 283 939 161 936 l 858 939 q 1129 704 1129 939 l 1129 622 q 1029 460 1114 486 q 1129 314 1114 419 l 1129 236 q 858 1 1129 1 l 467 1 l 467 161 l 876 161 q 972 274 972 161 q 869 392 972 392 l 467 392 l 467 550 l 876 550 q 972 664 972 550 q 869 781 972 781 l 325 781 q 189 639 189 781 l 189 -128 z "},"à":{"ha":1213,"x_min":39,"x_max":1129,"o":"m 272 157 l 896 157 l 624 701 q 586 746 600 746 q 547 701 571 746 l 272 157 m 1129 1 l 39 1 l 429 779 q 494 888 469 858 q 585 935 529 931 q 675 888 640 931 q 703 847 688 874 q 740 779 719 819 l 1129 1 m 706 1022 l 611 1022 q 450 1178 533 1029 l 644 1178 l 706 1022 z "},"á":{"ha":1213,"x_min":39,"x_max":1129,"o":"m 272 157 l 896 157 l 624 701 q 586 746 600 746 q 547 701 571 746 l 272 157 m 1129 1 l 39 1 l 429 779 q 494 888 469 858 q 585 935 529 931 q 675 888 640 931 q 703 847 688 874 q 740 779 719 819 l 1129 1 m 467 1022 l 528 1178 l 722 1178 q 561 1022 639 1029 l 467 1022 z "},"â":{"ha":1213,"x_min":39,"x_max":1129,"o":"m 272 157 l 896 157 l 624 701 q 586 746 600 746 q 547 701 571 746 l 272 157 m 1129 1 l 39 1 l 429 779 q 494 888 469 858 q 585 935 529 931 q 675 888 640 931 q 703 847 688 874 q 740 779 719 819 l 1129 1 m 528 1019 l 381 1019 l 528 1153 q 544 1164 538 1160 q 557 1171 551 1168 q 590 1178 568 1178 q 622 1171 608 1178 q 633 1165 626 1169 q 650 1153 639 1160 l 792 1019 l 642 1019 l 608 1053 q 583 1075 599 1068 q 558 1053 568 1068 l 528 1019 z "},"ã":{"ha":1213,"x_min":39,"x_max":1129,"o":"m 272 157 l 896 157 l 624 701 q 586 746 600 746 q 547 701 571 746 l 272 157 m 1129 1 l 39 1 l 429 779 q 494 888 469 858 q 585 935 529 931 q 675 888 640 931 q 703 847 688 874 q 740 779 719 819 l 1129 1 m 597 1153 l 606 1144 q 631 1122 615 1129 q 656 1144 646 1129 l 689 1178 l 839 1178 l 697 1044 l 669 1026 q 638 1019 656 1019 q 604 1026 615 1019 q 588 1037 599 1029 q 558 1058 576 1044 q 544 1068 551 1064 q 531 1075 538 1072 q 506 1053 515 1068 l 475 1019 l 328 1019 l 475 1153 q 492 1164 485 1160 q 504 1171 499 1168 q 538 1178 515 1178 q 569 1171 556 1178 l 597 1153 z "},"ä":{"ha":1213,"x_min":39,"x_max":1129,"o":"m 272 157 l 896 157 l 624 701 q 586 746 600 746 q 547 701 571 746 l 272 157 m 1129 1 l 39 1 l 429 779 q 494 888 469 858 q 585 935 529 931 q 675 888 640 931 q 703 847 688 874 q 740 779 719 819 l 1129 1 m 488 1018 l 332 1018 l 332 1174 l 488 1174 l 488 1018 m 836 1018 l 681 1018 l 681 1174 l 836 1174 l 836 1018 z "},"å":{"ha":1213,"x_min":39,"x_max":1129,"o":"m 664 1018 l 508 1018 l 508 1174 l 664 1174 l 664 1018 m 608 1071 l 608 1118 l 564 1118 l 564 1071 l 608 1071 m 1129 1 l 39 1 l 429 779 q 494 888 469 858 q 585 935 529 931 q 675 888 640 931 q 703 847 688 874 q 740 779 719 819 l 1129 1 m 272 157 l 896 157 l 624 701 q 586 746 600 746 q 547 701 571 746 l 272 157 z "},"æ":{"ha":2078,"x_min":39,"x_max":1988,"o":"m 1988 156 l 1051 156 l 935 389 l 1988 389 l 1988 544 l 897 544 l 897 465 l 740 779 q 703 847 719 819 q 675 888 688 874 q 585 935 640 931 q 494 888 529 931 q 429 779 469 858 l 39 1 l 1988 1 l 1988 156 m 272 157 l 547 701 q 586 746 571 746 q 624 701 600 746 l 896 157 l 272 157 m 1988 779 l 1988 935 l 897 935 l 897 779 l 1988 779 z "},"ç":{"ha":1213,"x_min":39,"x_max":1129,"o":"m 649 -232 l 649 0 l 1129 0 l 1129 157 l 583 157 q 193 469 193 157 q 583 781 193 781 l 972 781 l 972 701 l 1129 701 l 1129 936 l 581 936 q 39 468 39 936 q 583 0 39 0 l 604 0 l 493 -100 l 493 -232 l 649 -232 z "},"è":{"ha":1213,"x_min":39,"x_max":1129,"o":"m 1129 389 l 39 389 l 39 544 l 1129 544 l 1129 389 m 1129 779 l 39 779 l 39 935 l 1129 935 l 1129 779 m 1129 156 l 1129 0 l 39 0 l 39 156 l 1129 156 m 706 1022 l 611 1022 q 450 1178 533 1029 l 644 1178 l 706 1022 z "},"é":{"ha":1213,"x_min":39,"x_max":1129,"o":"m 1129 389 l 39 389 l 39 544 l 1129 544 l 1129 389 m 1129 779 l 39 779 l 39 935 l 1129 935 l 1129 779 m 1129 156 l 1129 0 l 39 0 l 39 156 l 1129 156 m 467 1022 l 528 1178 l 722 1178 q 561 1022 639 1029 l 467 1022 z "},"ê":{"ha":1213,"x_min":39,"x_max":1129,"o":"m 1129 389 l 39 389 l 39 544 l 1129 544 l 1129 389 m 1129 779 l 39 779 l 39 935 l 1129 935 l 1129 779 m 1129 156 l 1129 0 l 39 0 l 39 156 l 1129 156 m 528 1019 l 381 1019 l 528 1153 q 544 1164 538 1160 q 557 1171 551 1168 q 590 1178 568 1178 q 622 1171 608 1178 q 633 1165 626 1169 q 650 1153 639 1160 l 792 1019 l 642 1019 l 608 1053 q 583 1075 599 1068 q 558 1053 568 1068 l 528 1019 z "},"ë":{"ha":1213,"x_min":39,"x_max":1129,"o":"m 1129 389 l 39 389 l 39 544 l 1129 544 l 1129 389 m 1129 779 l 39 779 l 39 935 l 1129 935 l 1129 779 m 1129 156 l 1129 0 l 39 0 l 39 156 l 1129 156 m 836 1018 l 681 1018 l 681 1174 l 836 1174 l 836 1018 m 488 1018 l 332 1018 l 332 1174 l 488 1174 l 488 1018 z "},"ì":{"ha":265,"x_min":-11,"x_max":244,"o":"m 39 1 l 194 1 l 194 935 l 39 935 l 39 1 m 244 1028 l 183 1183 l -11 1183 q 150 1028 72 1035 l 244 1028 z "},"í":{"ha":265,"x_min":-11,"x_max":244,"o":"m 39 1 l 194 1 l 194 935 l 39 935 l 39 1 m -11 1028 l 83 1028 q 244 1183 161 1035 l 50 1183 l -11 1028 z "},"î":{"ha":265,"x_min":-86,"x_max":325,"o":"m 39 1 l 194 1 l 194 935 l 39 935 l 39 1 m 61 1019 l 92 1053 q 117 1075 101 1068 q 142 1053 132 1068 l 175 1019 l 325 1019 l 183 1153 q 166 1165 172 1160 q 156 1171 160 1169 q 124 1178 142 1178 q 90 1171 101 1178 q 78 1164 85 1168 q 61 1153 71 1160 l -86 1019 l 61 1019 z "},"ï":{"ha":265,"x_min":-135,"x_max":369,"o":"m 39 1 l 194 1 l 194 935 l 39 935 l 39 1 m 21 1018 l 21 1174 l -135 1174 l -135 1018 l 21 1018 m 214 1094 l 214 1018 l 369 1018 l 369 1174 l 214 1174 l 214 1094 z "},"ð":{"ha":1213,"x_min":38,"x_max":1129,"o":"m 263 156 l 869 156 q 974 274 974 156 l 974 393 l 263 393 q 194 333 194 392 l 194 221 q 263 156 194 156 m 38 157 l 38 392 q 224 547 38 547 l 972 547 l 972 664 q 869 781 972 781 l 38 781 l 38 935 l 856 935 q 1129 701 1129 935 l 1129 236 q 860 3 1129 3 l 222 3 q 38 157 38 3 z "},"ñ":{"ha":1213,"x_min":39,"x_max":1129,"o":"m 193 781 l 583 781 q 972 469 972 781 l 972 0 l 1129 0 l 1129 468 q 588 936 1129 936 l 39 936 l 39 1 l 193 1 l 193 781 m 589 1153 l 561 1171 q 529 1178 547 1178 q 496 1171 507 1178 q 483 1164 490 1168 q 467 1153 476 1160 l 319 1019 l 467 1019 l 497 1053 q 522 1075 507 1068 q 536 1068 529 1072 q 550 1058 543 1064 q 579 1037 568 1044 q 596 1026 590 1029 q 629 1019 607 1019 q 661 1026 647 1019 l 689 1044 l 831 1178 l 681 1178 l 647 1144 q 622 1122 638 1129 q 597 1144 607 1129 l 589 1153 z "},"ò":{"ha":1213,"x_min":39,"x_max":1129,"o":"m 581 936 q 1129 469 1129 936 q 583 0 1129 1 q 39 468 39 0 q 581 936 39 933 m 972 469 q 583 781 972 781 q 193 469 193 781 q 583 157 193 157 q 972 469 972 157 m 706 1022 l 611 1022 q 450 1178 533 1029 l 644 1178 l 706 1022 z "},"ó":{"ha":1213,"x_min":39,"x_max":1129,"o":"m 581 936 q 1129 469 1129 936 q 583 0 1129 1 q 39 468 39 0 q 581 936 39 933 m 972 469 q 583 781 972 781 q 193 469 193 781 q 583 157 193 157 q 972 469 972 157 m 467 1022 l 528 1178 l 722 1178 q 561 1022 639 1029 l 467 1022 z "},"ô":{"ha":1213,"x_min":39,"x_max":1129,"o":"m 581 936 q 1129 469 1129 936 q 583 0 1129 1 q 39 468 39 0 q 581 936 39 933 m 972 469 q 583 781 972 781 q 193 469 193 781 q 583 157 193 157 q 972 469 972 157 m 528 1019 l 381 1019 l 528 1153 q 544 1164 538 1160 q 557 1171 551 1168 q 590 1178 568 1178 q 622 1171 608 1178 q 633 1165 626 1169 q 650 1153 639 1160 l 792 1019 l 642 1019 l 608 1053 q 583 1075 599 1068 q 558 1053 568 1068 l 528 1019 z "},"õ":{"ha":1213,"x_min":39,"x_max":1129,"o":"m 581 936 q 1129 469 1129 936 q 583 0 1129 1 q 39 468 39 0 q 581 936 39 933 m 972 469 q 583 781 972 781 q 193 469 193 781 q 583 157 193 157 q 972 469 972 157 m 488 1018 l 332 1018 l 332 1174 l 488 1174 l 488 1018 m 836 1018 l 681 1018 l 681 1174 l 836 1174 l 836 1018 z "},"ö":{"ha":1213,"x_min":39,"x_max":1129,"o":"m 581 936 q 1129 469 1129 936 q 583 0 1129 1 q 39 468 39 0 q 581 936 39 933 m 972 469 q 583 781 972 781 q 193 469 193 781 q 583 157 193 157 q 972 469 972 157 m 597 1153 l 606 1144 q 631 1122 615 1129 q 656 1144 646 1129 l 689 1178 l 839 1178 l 697 1044 l 669 1026 q 638 1019 656 1019 q 604 1026 615 1019 q 588 1037 599 1029 q 558 1058 576 1044 q 544 1068 551 1064 q 531 1075 538 1072 q 506 1053 515 1068 l 475 1019 l 328 1019 l 475 1153 q 492 1164 485 1160 q 504 1171 499 1168 q 538 1178 515 1178 q 569 1171 556 1178 l 597 1153 z "},"÷":{"ha":854,"x_min":33,"x_max":788,"o":"m 493 907 l 493 751 l 338 751 l 338 907 l 493 907 m 788 507 l 33 507 l 33 643 l 788 643 l 788 507 m 490 401 l 490 246 l 335 246 l 335 401 l 490 401 z "},"ø":{"ha":1213,"x_min":39,"x_max":1129,"o":"m 1129 935 l 971 935 l 910 872 q 581 936 782 936 q 39 468 39 933 q 164 126 39 243 l 39 1 l 194 1 l 257 64 q 583 0 383 0 q 1129 469 1129 1 q 1003 808 1129 692 l 1129 935 m 788 750 l 281 243 q 193 469 193 322 q 583 781 193 781 q 788 750 706 781 m 972 469 q 583 157 972 157 q 381 186 464 157 l 886 692 q 972 469 972 614 z "},"ù":{"ha":1213,"x_min":39,"x_max":1129,"o":"m 972 936 l 1129 936 l 1129 469 q 583 0 1129 1 q 39 468 39 0 l 39 936 l 193 936 l 193 469 q 583 157 193 157 q 972 468 972 157 l 972 936 m 706 1022 l 611 1022 q 450 1178 533 1029 l 644 1178 l 706 1022 z "},"ú":{"ha":1213,"x_min":39,"x_max":1129,"o":"m 972 936 l 1129 936 l 1129 469 q 583 0 1129 1 q 39 468 39 0 l 39 936 l 193 936 l 193 469 q 583 157 193 157 q 972 468 972 157 l 972 936 m 467 1022 l 528 1178 l 722 1178 q 561 1022 639 1029 l 467 1022 z "},"û":{"ha":1213,"x_min":39,"x_max":1129,"o":"m 972 936 l 1129 936 l 1129 469 q 583 0 1129 1 q 39 468 39 0 l 39 936 l 193 936 l 193 469 q 583 157 193 157 q 972 468 972 157 l 972 936 m 528 1019 l 381 1019 l 528 1153 q 544 1164 538 1160 q 557 1171 551 1168 q 590 1178 568 1178 q 622 1171 608 1178 q 633 1165 626 1169 q 650 1153 639 1160 l 792 1019 l 642 1019 l 608 1053 q 583 1075 599 1068 q 558 1053 568 1068 l 528 1019 z "},"ü":{"ha":1213,"x_min":39,"x_max":1129,"o":"m 972 936 l 1129 936 l 1129 469 q 583 0 1129 1 q 39 468 39 0 l 39 936 l 193 936 l 193 469 q 583 157 193 157 q 972 468 972 157 l 972 936 m 836 1018 l 681 1018 l 681 1174 l 836 1174 l 836 1018 m 488 1018 l 332 1018 l 332 1174 l 488 1174 l 488 1018 z "},"ý":{"ha":1213,"x_min":38,"x_max":1129,"o":"m 1129 935 l 1129 236 q 858 1 1129 1 l 38 1 l 38 156 l 869 156 q 972 274 972 156 l 972 392 l 311 392 q 38 622 38 392 l 38 936 l 194 936 l 194 664 q 297 547 194 547 l 972 547 l 972 935 l 1129 935 m 467 1022 l 528 1178 l 722 1178 q 561 1022 639 1029 l 467 1022 z "},"þ":{"ha":1213,"x_min":33,"x_max":1129,"o":"m 189 939 l 38 939 l 38 589 l 869 589 q 972 469 972 589 q 869 353 972 353 l 33 353 l 33 1 l 193 1 l 193 200 l 868 200 q 1129 428 1129 200 l 1129 507 q 858 740 1129 740 l 189 740 l 189 939 z "},"ÿ":{"ha":1213,"x_min":38,"x_max":1129,"o":"m 1129 935 l 1129 236 q 858 1 1129 1 l 38 1 l 38 156 l 869 156 q 972 274 972 156 l 972 392 l 311 392 q 38 622 38 392 l 38 936 l 194 936 l 194 664 q 297 547 194 547 l 972 547 l 972 935 l 1129 935 m 488 1018 l 332 1018 l 332 1174 l 488 1174 l 488 1018 m 836 1018 l 681 1018 l 681 1174 l 836 1174 l 836 1018 z "}}}
